HIERARCHY
ROOT root
{
	OFFSET	0	13.1	24.9
	CHANNELS 6  Xposition Yposition Zposition Xrotation Yrotation Zrotation
	JOINT spine_1
	{
		OFFSET	0	9.99999	0
		CHANNELS 3  Xrotation Yrotation Zrotation
		JOINT spine_2
		{
			OFFSET	0	112	-10
			CHANNELS 3  Xrotation Yrotation Zrotation
			JOINT spine_3
			{
				OFFSET	0	206.5	19.3
				CHANNELS 3  Xrotation Yrotation Zrotation
				JOINT spine_4
				{
					OFFSET	0	110.4	14.6
					CHANNELS 3  Xrotation Yrotation Zrotation
					JOINT neck_1
					{
						OFFSET	0	71.8	-50.3
						CHANNELS 3  Xrotation Yrotation Zrotation
						JOINT neck_2
						{
							OFFSET	0	86.2	-25.8
							CHANNELS 3  Xrotation Yrotation Zrotation
							JOINT head_ee
							{
								OFFSET	0	179.8	-8.7
								CHANNELS 3  Xrotation Yrotation Zrotation
								End Site
								{
									OFFSET	1	0	0
								}
							}
						}
					}
					JOINT left_clavicle
					{
						OFFSET	-43.2	22.4	-70.8
						CHANNELS 3  Xrotation Yrotation Zrotation
						JOINT left_shoulder
						{
							OFFSET	-93.9	-5.79999	48.7
							CHANNELS 3  Xrotation Yrotation Zrotation
							JOINT left_elbow
							{
								OFFSET	-291.4	-30.8	15.2
								CHANNELS 3  Xrotation Yrotation Zrotation
								JOINT left_lowarm_twist
								{
									OFFSET	-110.7	-3.89999	13.6
									CHANNELS 3  Xrotation Yrotation Zrotation
									JOINT left_hand
									{
										OFFSET	-110.7	-3.89999	13.6
										CHANNELS 3  Xrotation Yrotation Zrotation
										JOINT left_ee
										{
											OFFSET	-80.8	-5.10001	12.1
											CHANNELS 3  Xrotation Yrotation Zrotation
											End Site
											{
												OFFSET	1	0	0
											}
										}
									}
								}
							}
						}
					}
					JOINT right_clavicle
					{
						OFFSET	43.2	22.4	-70.8
						CHANNELS 3  Xrotation Yrotation Zrotation
						JOINT right_shoulder
						{
							OFFSET	93.9	-5.79999	48.7
							CHANNELS 3  Xrotation Yrotation Zrotation
							JOINT right_elbow
							{
								OFFSET	291.4	-30.8	15.2
								CHANNELS 3  Xrotation Yrotation Zrotation
								JOINT right_lowarm_twist
								{
									OFFSET	110.7	-3.89999	13.6
									CHANNELS 3  Xrotation Yrotation Zrotation
									JOINT right_hand
									{
										OFFSET	110.7	-3.89999	13.6
										CHANNELS 3  Xrotation Yrotation Zrotation
										JOINT right_ee
										{
											OFFSET	80.8	-5.10001	12.1
											CHANNELS 3  Xrotation Yrotation Zrotation
											End Site
											{
												OFFSET	1	0	0
											}
										}
									}
								}
							}
						}
					}
				}
			}
		}
	}
	JOINT left_hip
	{
		OFFSET	-82.8	-127.5	0.300001
		CHANNELS 3  Xrotation Yrotation Zrotation
		JOINT left_knee
		{
			OFFSET	-28.2	-396.7	2.2
			CHANNELS 3  Xrotation Yrotation Zrotation
			JOINT left_ankle
			{
				OFFSET	-11.7	-411.3	35.4
				CHANNELS 3  Xrotation Yrotation Zrotation
				JOINT left_toes
				{
					OFFSET	0	-60	-88.6
					CHANNELS 3  Xrotation Yrotation Zrotation
					JOINT left_foot_ee
					{
						OFFSET	-22.5	-16.5	-42.2
						CHANNELS 3  Xrotation Yrotation Zrotation
						End Site
						{
							OFFSET	1	0	0
						}
					}
				}
			}
		}
	}
	JOINT right_hip
	{
		OFFSET	82.8	-127.5	0.300001
		CHANNELS 3  Xrotation Yrotation Zrotation
		JOINT right_knee
		{
			OFFSET	28.2	-396.7	2.2
			CHANNELS 3  Xrotation Yrotation Zrotation
			JOINT right_ankle
			{
				OFFSET	11.7	-411.3	35.4
				CHANNELS 3  Xrotation Yrotation Zrotation
				JOINT right_toes
				{
					OFFSET	0	-60	-88.6
					CHANNELS 3  Xrotation Yrotation Zrotation
					JOINT right_foot_ee
					{
						OFFSET	22.5	-16.5	-42.2
						CHANNELS 3  Xrotation Yrotation Zrotation
						End Site
						{
							OFFSET	1	0	0
						}
					}
				}
			}
		}
	}
}
MOTION
Frames: 10
Frame Time: 0.02
1372.05 701.618 -1475.22 -17.2151720663 29.2745689063 4.93507499232 5.11144 0.290875 1.70925 5.11305 0.181537 1.72429 5.11707 -0.0304078 1.73355 5.11296 0.243715 1.71661 -13.484 9.73359 -5.48982 -13.7463 21.9219 -2.1801 -0.0 0.0 -0.0 3.13272 -2.99634 5.83615 -13.2274 -21.0903 54.386 1.69048 -39.94 0.614322 39.0326 -0.299905 -4.88201 0.430862 0.26527 2.98841 -0.0 0.0 -0.0 7.80587 -7.39968 -14.9698 -45.7273 39.1357 -53.5928 0.252788 7.13781 -0.0157664 44.0253 0.575022 5.45815 0.282935 -4.57436 -3.77829 0.0 0.0 0.0 3.63058 -20.3383 12.7065 -10.1997 0.283723 1.53755 33.9368 23.6092 -4.5112 6.90277 -0.0 -0.0 -0.0 0.0 -0.0 37.3401 21.6268 1.52584 6.18791 0.303806 0.90021 34.278 -24.1433 4.56151 -29.6594 0.0 0.0 0.0 0.0 0.0 
1369.39971146 701.283 -1487.68050828 -18.1878013166 30.0887564848 6.02540621406 5.12734 0.274955 1.67072 5.12888 0.1681 1.68483 5.13244 -0.0384752 1.69275 5.12851 0.229308 1.6776 -12.3826 9.12344 -6.37761 -12.5314 21.3665 -3.4514 -0.0 0.0 -0.0 3.13742 -3.34483 5.82098 -14.573 -21.5843 54.2401 1.70807 -40.2321 0.625649 38.8868 -0.29263 -4.86484 0.525347 0.70307 3.80052 -0.0 0.0 -0.0 8.06931 -7.13202 -15.4757 -44.8581 39.443 -53.8674 0.272442 7.68636 -0.0183018 44.0636 0.577327 5.46248 0.348905 -4.78615 -4.2995 0.0 0.0 0.0 3.49866 -20.1642 12.339 -9.13806 0.26702 1.37551 34.3998 23.2774 -4.55219 6.92987 -0.0 -0.0 -0.0 0.0 -0.0 37.9001 21.513 0.860185 5.94056 0.289801 0.864872 34.1234 -24.3199 4.54963 -29.5718 0.0 0.0 0.0 0.0 0.0 
1369.54809324 701.283 -1487.71114721 -18.066549882 29.441134774 5.78116997664 5.12734 0.274955 1.67072 5.12888 0.1681 1.68483 5.13244 -0.0384752 1.69275 5.12851 0.229308 1.6776 -12.3826 9.12344 -6.37761 -12.5314 21.3665 -3.4514 -0.0 0.0 -0.0 3.13742 -3.34483 5.82098 -14.573 -21.5843 54.2401 1.70807 -40.2321 0.625649 38.8868 -0.29263 -4.86484 0.525347 0.70307 3.80052 -0.0 0.0 -0.0 8.06931 -7.13202 -15.4757 -44.8581 39.443 -53.8674 0.272442 7.68636 -0.0183018 44.0636 0.577327 5.46248 0.348905 -4.78615 -4.2995 0.0 0.0 0.0 3.49866 -20.1642 12.339 -9.13806 0.26702 1.37551 34.3998 23.2774 -4.55219 6.92987 -0.0 -0.0 -0.0 0.0 -0.0 37.9001 21.513 0.860185 5.94056 0.289801 0.864872 34.1234 -24.3199 4.54963 -29.5718 0.0 0.0 0.0 0.0 0.0 
1357.38239078 701.874 -1504.93944463 -18.6346215751 29.2908652816 6.26265650033 5.00238 0.378752 1.72386 5.00399 0.268307 1.74446 5.01075 0.0500151 1.76426 5.00656 0.327977 1.73424 -11.6872 8.57154 -7.59863 -11.7382 21.1442 -4.94014 -0.0 0.0 -0.0 3.23774 -3.51066 6.00878 -16.5293 -21.8917 54.1707 1.70667 -40.2089 0.624744 38.8484 -0.290722 -4.86031 0.632214 0.768402 4.54163 -0.0 0.0 -0.0 8.27845 -6.61422 -15.8972 -44.4 39.5894 -53.946 0.272947 7.70044 -0.0183695 44.1227 0.580887 5.46915 0.371891 -5.2497 -4.63903 0.0 0.0 0.0 3.88544 -19.9255 12.2631 -9.10853 0.266512 1.371 34.3024 23.4515 -4.54623 6.76325 -0.0 -0.0 -0.0 0.0 -0.0 37.941 21.5125 0.390176 5.55152 0.268086 0.809173 34.7247 -24.1765 4.60995 -29.2776 0.0 0.0 0.0 0.0 0.0 
1335.2472508 707.066 -1540.7116922 -20.4519336484 31.1445235258 8.17067863646 5.02342 0.556101 1.79343 5.0251 0.440873 1.82516 5.03765 0.212215 1.86561 5.03315 0.504142 1.80872 -11.495 7.92062 -8.83148 -11.4636 20.7296 -6.3692 -0.0 0.0 -0.0 2.92365 -1.21069 5.55025 -20.3982 -22.5565 54.156 1.73402 -40.6585 0.642482 38.4015 -0.268739 -4.80756 0.723958 1.81959 5.58365 -0.0 0.0 -0.0 8.82119 -4.99429 -17.0268 -42.4261 40.6926 -54.5461 0.328915 9.25435 -0.0266209 44.299 0.591551 5.48903 0.497431 -5.45829 -5.5498 0.0 0.0 0.0 4.3139 -19.5261 11.3196 -9.98686 0.280616 1.50504 32.8101 25.6172 -4.44155 6.56736 -0.0 -0.0 -0.0 0.0 -0.0 36.8364 21.1214 0.293987 4.58067 0.215551 0.669558 34.1232 -24.5909 4.55687 -29.2277 0.0 0.0 0.0 0.0 0.0 
1322.25600667 708.435 -1564.64550089 -19.783164962 32.466432304 8.10500978451 4.81315 0.62532 1.79967 4.8148 0.509555 1.8358 4.82975 0.272255 1.88563 4.82524 0.566589 1.81901 -10.945 7.51129 -9.51174 -10.8398 20.4559 -7.25966 -0.0 0.0 -0.0 2.63541 -0.512961 5.04002 -22.0576 -22.9339 54.9332 1.72923 -40.5802 0.639364 38.2681 -0.262259 -4.79178 0.733941 3.10656 6.1707 -0.0 0.0 -0.0 9.0162 -4.34561 -17.4436 -41.0301 41.3697 -54.9199 0.35424 9.95314 -0.0308461 44.346 0.5944 5.49432 0.3925 -5.42982 -4.84754 0.0 0.0 0.0 4.83155 -19.467 11.0173 -15.139 0.321857 2.29422 33.3451 26.9226 -4.53883 6.44234 -0.0 -0.0 -0.0 0.0 -0.0 35.3999 20.8315 -0.0640527 3.61004 0.165407 0.529123 31.9966 -24.9545 4.33318 -29.6025 0.0 0.0 0.0 0.0 0.0 
1311.7662513 708.782 -1584.21054417 -18.9495215457 32.7553683707 7.86043929483 4.70414 0.65671 1.89712 4.70598 0.534684 1.93505 4.72257 0.280875 1.98779 4.71755 0.591227 1.91853 -10.8505 7.34003 -9.78467 -10.7217 20.3235 -7.59357 -0.0 0.0 -0.0 2.26424 0.241615 4.38115 -23.5178 -23.0236 55.0519 1.70846 -40.2385 0.6259 38.1994 -0.258934 -4.78365 0.729698 4.1696 6.5691 -0.0 0.0 -0.0 9.15689 -4.15733 -17.7304 -39.6863 41.9075 -55.4235 0.372264 10.4487 -0.0340382 44.3609 0.595308 5.496 0.330464 -5.40677 -4.43014 0.0 0.0 0.0 5.63222 -19.4109 10.939 -19.4854 0.301406 2.96062 33.4882 27.6377 -4.57702 6.33084 -0.0 -0.0 -0.0 0.0 -0.0 33.9545 20.8366 -0.381992 3.14178 0.14207 0.46108 30.2623 -25.1834 4.14209 -29.8862 0.0 0.0 0.0 0.0 0.0 
1314.88381815 708.782 -1585.87756517 -18.6224160616 31.2156479949 7.24297517196 4.70414 0.65671 1.89712 4.70598 0.534684 1.93505 4.72257 0.280875 1.98779 4.71755 0.591227 1.91853 -10.8505 7.34003 -9.78467 -10.7217 20.3235 -7.59357 -0.0 0.0 -0.0 2.26424 0.241615 4.38115 -23.5178 -23.0236 55.0519 1.70846 -40.2385 0.6259 38.1994 -0.258934 -4.78365 0.729698 4.1696 6.5691 -0.0 0.0 -0.0 9.15689 -4.15733 -17.7304 -39.6863 41.9075 -55.4235 0.372264 10.4487 -0.0340382 44.3609 0.595308 5.496 0.330464 -5.40677 -4.43014 0.0 0.0 0.0 5.63222 -19.4109 10.939 -19.4854 0.301406 2.96062 33.4882 27.6377 -4.57702 6.33084 -0.0 -0.0 -0.0 0.0 -0.0 33.9545 20.8366 -0.381992 3.14178 0.14207 0.46108 30.2623 -25.1834 4.14209 -29.8862 0.0 0.0 0.0 0.0 0.0 
1305.62598413 712.393 -1604.31778489 -17.9466998832 31.3802486436 7.28891341589 4.63853 0.674427 1.84511 4.64025 0.555673 1.88426 4.65719 0.306027 1.94049 4.65245 0.608597 1.86785 -10.7674 7.36725 -8.98283 -10.6735 19.852 -6.8125 -0.0 0.0 -0.0 2.39433 0.697396 4.66634 -24.7726 -23.4015 55.4762 1.56494 -37.7811 0.535541 37.7532 -0.237585 -4.73074 0.693887 5.36349 6.80791 -0.0 0.0 -0.0 9.37922 -3.07666 -18.2326 -37.239 42.7844 -56.2859 0.388942 10.9058 -0.0371281 44.6535 0.613176 5.52891 0.239762 -5.39912 -3.83082 0.0 0.0 0.0 7.23765 -17.7528 10.7364 -23.7259 0.232827 3.60754 33.0376 27.2148 -4.51348 5.9987 -0.0 -0.0 -0.0 0.0 -0.0 32.8432 20.3626 -1.15885 1.53894 0.0664246 0.226803 28.5666 -25.4183 3.94973 -30.1261 0.0 0.0 0.0 0.0 0.0 
1295.17301752 722.174 -1629.96877833 -17.9548576937 31.1248010581 7.25197684297 4.63516 0.614204 1.8623 4.63695 0.494478 1.8976 4.65195 0.243406 1.94578 4.64708 0.547597 1.88296 -10.7062 7.22926 -8.9794 -10.6055 19.5957 -6.85771 -0.0 0.0 -0.0 2.09505 1.44113 4.15342 -26.866 -23.5273 56.6173 1.41713 -35.0669 0.447749 37.5352 -0.227307 -4.70483 0.656762 6.53792 7.02842 -0.0 0.0 -0.0 9.58321 -2.42036 -18.6779 -35.06 43.5192 -56.8772 0.412712 11.5548 -0.0417576 44.7901 0.621574 5.54424 0.229435 -5.05306 -3.62159 0.0 0.0 0.0 9.06984 -16.6228 10.2304 -26.6017 0.159155 4.04268 32.6944 26.5217 -4.45436 5.7655 -0.0 -0.0 -0.0 0.0 -0.0 31.3397 20.0325 -1.81184 0.456406 0.0190628 0.0674443 27.1108 -25.5589 3.77874 -30.4023 0.0 0.0 0.0 0.0 0.0 
